<svg height="512pt" viewBox="-4 0 512 512" width="512pt" xmlns="http://www.w3.org/2000/svg"><g fill="#40c1fa"><path d="m55.808594 367.710938c-4.140625 0-7.5-3.355469-7.5-7.5v-27.046876c0-4.144531 3.359375-7.5 7.5-7.5 4.144531 0 7.5 3.355469 7.5 7.5v27.046876c0 4.144531-3.355469 7.5-7.5 7.5zm0 0"/><path d="m55.808594 485.15625c-4.140625 0-7.5-3.355469-7.5-7.5v-66.664062c0-4.140626 3.359375-7.5 7.5-7.5 4.144531 0 7.5 3.359374 7.5 7.5v66.664062c0 4.144531-3.355469 7.5-7.5 7.5zm0 0"/><path d="m132.65625 345.078125c-4.140625 0-7.5-3.355469-7.5-7.5v-69.859375c0-4.144531 3.359375-7.5 7.5-7.5 4.144531 0 7.5 3.355469 7.5 7.5v69.859375c0 4.144531-3.355469 7.5-7.5 7.5zm0 0"/><path d="m132.65625 512c-4.140625 0-7.5-3.355469-7.5-7.5v-58.457031c0-4.144531 3.359375-7.5 7.5-7.5 4.144531 0 7.5 3.355469 7.5 7.5v58.457031c0 4.144531-3.355469 7.5-7.5 7.5zm0 0"/><path d="m132.65625 406.363281c-4.140625 0-7.5-3.359375-7.5-7.5v-18.84375c0-4.144531 3.359375-7.5 7.5-7.5 4.144531 0 7.5 3.355469 7.5 7.5v18.84375c0 4.140625-3.355469 7.5-7.5 7.5zm0 0"/><path d="m392.09375 345.078125c-4.140625 0-7.5-3.355469-7.5-7.5v-80.664063c0-4.140624 3.359375-7.5 7.5-7.5 4.144531 0 7.5 3.359376 7.5 7.5v80.664063c0 4.144531-3.355469 7.5-7.5 7.5zm0 0"/><path d="m392.09375 512c-4.140625 0-7.5-3.355469-7.5-7.5v-58.457031c0-4.144531 3.359375-7.5 7.5-7.5 4.144531 0 7.5 3.355469 7.5 7.5v58.457031c0 4.144531-3.355469 7.5-7.5 7.5zm0 0"/><path d="m392.09375 406.363281c-4.140625 0-7.5-3.359375-7.5-7.5v-18.84375c0-4.144531 3.359375-7.5 7.5-7.5 4.144531 0 7.5 3.355469 7.5 7.5v18.84375c0 4.140625-3.355469 7.5-7.5 7.5zm0 0"/><path d="m448.691406 359.433594c-4.140625 0-7.5-3.359375-7.5-7.5v-33.679688c0-4.144531 3.359375-7.5 7.5-7.5 4.144532 0 7.5 3.355469 7.5 7.5v33.679688c0 4.140625-3.355468 7.5-7.5 7.5zm0 0"/><path d="m448.691406 474.699219c-4.140625 0-7.5-3.355469-7.5-7.5v-63.386719c0-4.144531 3.359375-7.5 7.5-7.5 4.144532 0 7.5 3.355469 7.5 7.5v63.386719c0 4.144531-3.355468 7.5-7.5 7.5zm0 0"/></g><path d="m302.742188 268.144531h-70.761719c-2.101563 0-4.035157 1.152344-5.035157 3l-61.394531 113.414063c-2.070312 3.816406.699219 8.457031 5.042969 8.449218l58.589844-.089843c4.078125-.007813 6.855468 4.132812 5.304687 7.902343l-31.742187 77.105469c-2.382813 5.792969 4.925781 10.65625 9.347656 6.21875l121.707031-122.105469c3.597657-3.609374 1.042969-9.765624-4.054687-9.765624h-61.171875c-4.558594 0-7.289063-5.066407-4.78125-8.875l43.730469-66.378907c2.507812-3.804687-.222657-8.875-4.78125-8.875zm0 0" fill="#ffd508"/><path d="m288.5 277.019531-43.730469 66.378907c-2.507812 3.808593.21875 8.875 4.777344 8.875h19.027344c-4.558594 0-7.289063-5.066407-4.78125-8.875l43.730469-66.378907c2.507812-3.804687-.21875-8.875-4.777344-8.875h-19.027344c4.558594 0 7.289062 5.070313 4.78125 8.875zm0 0" fill="#eec707"/><path d="m210.160156 392.917969-40.003906.058593c.144531.011719.285156.03125.4375.03125l40.027344-.0625c-.152344-.011718-.304688-.027343-.460938-.027343zm0 0" fill="#eec707"/><path d="m329.746094 352.273438h-19.023438c5.09375 0 7.652344 6.15625 4.054688 9.765624l-109.585938 109.941407-2.445312 5.945312c-2.382813 5.789063 4.929687 10.65625 9.347656 6.21875l121.707031-122.105469c3.597657-3.609374 1.042969-9.765624-4.054687-9.765624zm0 0" fill="#eec707"/><path d="m445.222656 166.097656c-2.179687 0-4.324218.125-6.441406.355469.363281-3.058594.558594-6.171875.558594-9.328125 0-43.023438-34.878906-77.898438-77.902344-77.898438-5.386719 0-10.648438.546876-15.730469 1.589844-6.601562-45.703125-45.925781-80.816406-93.457031-80.816406-47.527344 0-86.851562 35.113281-93.457031 80.816406-5.078125-1.042968-10.339844-1.589844-15.730469-1.589844-43.023438 0-77.898438 34.878907-77.898438 77.902344 0 3.152344.191407 6.265625.558594 9.324219-2.117187-.230469-4.265625-.355469-6.441406-.355469-32.742188 0-59.28125 26.542969-59.28125 59.28125 0 32.738282 26.539062 59.28125 59.28125 59.28125 14.355469 0 27.519531-5.105468 37.773438-13.597656 13.085937 18.464844 34.605468 30.527344 58.960937 30.527344 19.21875 0 36.671875-7.519532 49.613281-19.765625 8.675782 19.621093 28.292969 33.316406 51.125 33.316406 20.695313 0 38.753906-11.261719 48.410156-27.984375 12.070313 9.0625 27.070313 14.433594 43.324219 14.433594 24.351563 0 45.871094-12.0625 58.957031-30.527344 10.257813 8.492188 23.421876 13.59375 37.777344 13.59375 32.738282 0 59.28125-26.539062 59.28125-59.277344 0-32.742187-26.542968-59.28125-59.28125-59.28125zm0 0" fill="#5a5a5a"/><path d="m445.222656 166.097656c-2.179687 0-4.324218.125-6.441406.355469.363281-3.058594.558594-6.171875.558594-9.328125 0-43.023438-34.878906-77.898438-77.902344-77.898438-5.386719 0-10.648438.546876-15.730469 1.589844-6.601562-45.703125-45.925781-80.816406-93.457031-80.816406-34.535156 0-64.722656 18.546875-81.1875 46.214844 15.609375-11.417969 34.859375-18.160156 55.683594-18.160156 39.367187 0 73.105468 24.09375 87.285156 58.335937 4.90625 11.851563 15.945312 20.035156 28.726562 21.144531 34.257813 2.976563 62.902344 28.601563 69.605469 62.332032 2.507813 12.628906 11.75 23.046874 24.101563 26.683593 24.453125 7.199219 42.53125 29.816407 42.53125 56.882813 0 8.449218-1.78125 16.476562-4.964844 23.75 18.171875-10.125 30.46875-29.527344 30.46875-51.804688 0-32.742187-26.539062-59.28125-59.277344-59.28125zm0 0" fill="#464646"/></svg>